<svg width="300" height="124" viewBox="0 0 300 124" fill="none" xmlns="http://www.w3.org/2000/svg">
<path d="M299.361 62.7296C299.361 64.7146 298.402 66.7035 296.468 68.6814C294.532 70.661 291.651 72.5947 287.896 74.4519C280.39 78.1654 269.495 81.5237 255.991 84.3491C228.993 89.9984 191.671 93.4964 150.431 93.4964C109.19 93.4964 71.8685 89.9984 44.8696 84.3491C31.366 81.5237 20.4714 78.1654 12.9647 74.4519C9.21042 72.5947 6.3294 70.661 4.39337 68.6814C2.45904 66.7035 1.5 64.7146 1.5 62.7296C1.5 60.7447 2.45904 58.7558 4.39337 56.7779C6.3294 54.7983 9.21042 52.8646 12.9647 51.0074C20.4714 47.2939 31.366 43.9356 44.8696 41.1101C71.8685 35.4609 109.19 31.9629 150.431 31.9629C191.671 31.9629 228.993 35.4609 255.991 41.1101C269.495 43.9356 280.39 47.2939 287.896 51.0074C291.651 52.8646 294.532 54.7983 296.468 56.7779C298.402 58.7558 299.361 60.7447 299.361 62.7296Z" stroke="#1A1A1A"/>
<path d="M295.198 31.0646C294.956 33.0296 293.777 35.1978 291.646 37.5577C289.514 39.9198 286.464 42.4325 282.571 45.0508C274.787 50.2862 263.737 55.8731 250.204 61.4741C223.147 72.6725 186.272 83.8836 145.996 92.4444C105.721 101.005 69.6995 105.289 44.0222 105.299C31.1796 105.305 20.95 104.241 14.0725 102.122C10.6328 101.062 8.05543 99.7456 6.40652 98.1873C4.75905 96.6304 4.06552 94.8603 4.30784 92.8953C4.55016 90.9303 5.72933 88.7621 7.85982 86.4022C9.99217 84.0401 13.0418 81.5274 16.935 78.9091C24.7194 73.6737 35.7692 68.0868 49.3018 62.4858C76.3588 51.2874 113.234 40.0763 153.51 31.5155C193.785 22.9547 229.806 18.6711 255.484 18.6605C268.326 18.6552 278.556 19.7191 285.433 21.8379C288.873 22.8977 291.451 24.2143 293.099 25.7726C294.747 27.3295 295.44 29.0996 295.198 31.0646Z" stroke="#1A1A1A"/>
</svg>
