<svg width="435" height="478" viewBox="0 0 435 478" fill="none" xmlns="http://www.w3.org/2000/svg">
<g clip-path="url(#clip0_817_76)">
<path d="M302.061 96.9756C271.906 92.1593 237.567 89.5893 201.805 89.5893C169.076 89.5893 137.544 91.7385 109.324 95.791C109.331 95.3572 109.337 94.9235 109.356 94.4898C110.105 69.3141 120.662 45.4299 138.773 27.9421C156.884 10.4543 181.112 0.750277 206.277 0.904146C231.442 1.05802 255.549 11.0575 273.445 28.7655C291.341 46.4734 301.607 70.485 302.048 95.668C302.054 96.1082 302.061 96.5419 302.061 96.9756Z" fill="#FF5722"/>
<g opacity="0.1">
<path d="M218.33 0.868309C204.945 -0.941075 191.33 0.0844313 178.367 3.87836C165.404 7.67229 153.382 14.15 143.08 22.8916C132.779 31.6332 124.427 42.4437 118.567 54.6224C112.707 66.8011 109.469 80.0763 109.063 93.5875C109.044 94.0213 109.038 94.455 109.031 94.8887C117.415 93.6847 126.097 92.6531 135.01 91.7916C136.101 69.2824 145.03 47.8656 160.249 31.2573C175.469 14.649 196.017 3.89747 218.33 0.868309Z" fill="white"/>
</g>
<path d="M344.219 104.628C330.339 100.862 316.26 97.8705 302.047 95.6682C278.753 92.0555 255.269 89.7968 231.713 88.9034C221.901 88.5021 211.908 88.2949 201.805 88.2949C193.797 88.2949 185.854 88.4244 178.021 88.6833C155.044 89.3628 132.121 91.3012 109.356 94.4901C92.5039 96.8125 75.8153 100.198 59.39 104.628C21.0924 115.225 0 129.428 0 144.614C0 159.801 21.0924 174.004 59.39 184.601C86.3232 192.059 119.53 197.141 155.713 199.471C170.648 200.442 186.087 200.934 201.805 200.934C217.574 200.934 233.065 200.436 248.045 199.464C280.974 197.335 311.439 192.926 336.936 186.517C337.072 186.479 337.201 186.446 337.337 186.414C339.058 185.987 340.752 185.54 342.428 185.093C343.029 184.925 343.624 184.763 344.219 184.601C344.253 184.588 344.287 184.577 344.323 184.569C344.892 184.414 345.455 184.252 346.017 184.096C347.143 183.773 348.255 183.456 349.348 183.125C349.4 183.112 349.445 183.099 349.491 183.087C350.441 182.802 351.373 182.517 352.298 182.232C353.055 181.992 353.805 181.759 354.549 181.52C355.092 181.345 355.629 181.17 356.159 180.996C356.548 180.866 356.929 180.743 357.304 180.614C357.815 180.445 358.326 180.271 358.831 180.096C359.044 180.025 359.258 179.953 359.465 179.876C359.95 179.714 360.422 179.546 360.894 179.377C361.405 179.196 361.916 179.008 362.42 178.827C362.841 178.678 363.261 178.523 363.675 178.367C364.024 178.231 364.367 178.102 364.717 177.972C365.667 177.616 366.599 177.247 367.517 176.885C367.977 176.697 368.436 176.516 368.888 176.328C369.335 176.147 369.788 175.959 370.228 175.771C370.952 175.467 371.663 175.163 372.362 174.859C372.698 174.703 373.041 174.554 373.371 174.412C373.623 174.296 373.869 174.185 374.121 174.069C374.302 173.991 374.484 173.907 374.658 173.823C375.311 173.525 375.958 173.221 376.592 172.917C379.024 171.751 381.295 170.56 383.403 169.343C396.63 161.763 403.609 153.354 403.609 144.614C403.609 129.428 382.517 115.225 344.219 104.628ZM343.87 183.358C316.905 190.822 283.607 195.904 247.327 198.215C232.573 199.154 217.322 199.639 201.805 199.639C186.339 199.639 171.139 199.16 156.431 198.222C120.093 195.917 86.7436 190.835 59.7393 183.358C22.0497 172.923 1.29362 159.167 1.29362 144.614C1.29573 143.329 1.45654 142.048 1.77241 140.802C5.07089 127.673 25.3614 115.387 59.7393 105.87C76.0405 101.476 92.6012 98.1095 109.324 95.7912C132.226 92.5844 155.287 90.6394 178.403 89.9651C186.113 89.7126 193.914 89.5875 201.805 89.5896C211.772 89.5896 221.629 89.7903 231.319 90.1787C255.011 91.0641 278.632 93.3336 302.06 96.9759C316.15 99.1683 330.108 102.138 343.87 105.87C378.242 115.387 398.526 127.667 401.831 140.789C402.152 142.039 402.315 143.324 402.316 144.614C402.316 159.167 381.56 172.923 343.87 183.358Z" fill="#FF5722"/>
<path d="M403.242 145.203C403.242 153.852 396.12 162.034 383.404 169.343C381.289 170.56 379.012 171.751 376.593 172.916C375.959 173.221 375.312 173.525 374.659 173.823C374.484 173.907 374.303 173.991 374.122 174.069C373.87 174.185 373.624 174.295 373.372 174.412C373.042 174.554 372.699 174.703 372.363 174.858C371.664 175.163 370.953 175.467 370.228 175.771C369.788 175.959 369.335 176.147 368.889 176.328C368.437 176.516 367.977 176.697 367.518 176.885C366.6 177.247 365.668 177.616 364.717 177.972C364.368 178.102 364.025 178.231 363.676 178.367C363.262 178.522 362.842 178.678 362.421 178.827C361.917 179.008 361.406 179.196 360.895 179.377C360.423 179.545 359.95 179.713 359.465 179.875C359.258 179.953 359.045 180.024 358.831 180.095C358.327 180.27 357.816 180.445 357.305 180.613C356.93 180.743 356.548 180.866 356.16 180.995C355.63 181.17 355.093 181.345 354.549 181.52C353.806 181.759 353.055 181.992 352.299 182.232C351.374 182.517 350.442 182.801 349.492 183.086C349.446 183.099 349.401 183.112 349.349 183.125C348.256 183.455 347.144 183.772 346.018 184.096C345.455 184.251 344.893 184.413 344.323 184.569C344.288 184.576 344.254 184.587 344.22 184.601C343.625 184.763 343.03 184.925 342.428 185.093C340.76 185.533 339.059 185.98 337.338 186.414C337.202 186.446 337.073 186.478 336.937 186.517C312.132 192.719 281.699 197.237 248.02 199.419C233.266 200.37 217.885 200.875 202.084 200.875C186.14 200.875 170.629 200.364 155.759 199.393C66.9907 193.599 0.925781 171.537 0.925781 145.203C0.93277 143.601 1.17681 142.008 1.64997 140.478C1.68882 140.588 1.72766 140.691 1.77314 140.801C11.0028 165.064 76.5056 184.672 161.496 189.456C174.517 190.194 188.003 190.576 201.805 190.576C215.667 190.576 229.204 190.188 242.276 189.45C327.196 184.646 392.634 165.032 401.831 140.788C401.987 140.4 402.123 140.011 402.239 139.623C402.895 141.411 403.234 143.299 403.242 145.203Z" fill="#FF5722"/>
<path d="M59.2914 138.236C48.5267 138.236 37.0859 135.918 37.0859 131.622C37.0859 127.326 48.5267 125.008 59.2914 125.008C70.056 125.008 81.4968 127.326 81.4968 131.622C81.4968 135.918 70.056 138.236 59.2914 138.236ZM59.2914 126.303C46.9677 126.303 38.3796 129.106 38.3796 131.622C38.3796 134.137 46.9677 136.941 59.2914 136.941C71.615 136.941 80.2032 134.137 80.2032 131.622C80.2032 129.106 71.615 126.303 59.2914 126.303Z" fill="#FF5722"/>
<path d="M105.217 168.66C94.4525 168.66 83.0117 166.342 83.0117 162.046C83.0117 157.751 94.4525 155.433 105.217 155.433C115.982 155.433 127.423 157.751 127.423 162.046C127.423 166.342 115.982 168.66 105.217 168.66ZM105.217 156.727C92.8935 156.727 84.3053 159.531 84.3053 162.046C84.3053 164.562 92.8935 167.366 105.217 167.366C117.541 167.366 126.129 164.562 126.129 162.046C126.129 159.531 117.541 156.727 105.217 156.727Z" fill="#FF5722"/>
<path d="M343.889 138.236C333.124 138.236 321.684 135.918 321.684 131.622C321.684 127.326 333.124 125.008 343.889 125.008C354.654 125.008 366.094 127.326 366.094 131.622C366.094 135.918 354.654 138.236 343.889 138.236ZM343.889 126.303C331.565 126.303 322.977 129.106 322.977 131.622C322.977 134.137 331.565 136.941 343.889 136.941C356.213 136.941 364.801 134.137 364.801 131.622C364.801 129.106 356.213 126.303 343.889 126.303Z" fill="#FF5722"/>
<path d="M297.967 168.66C287.202 168.66 275.762 166.342 275.762 162.046C275.762 157.751 287.202 155.433 297.967 155.433C308.732 155.433 320.173 157.751 320.173 162.046C320.173 166.342 308.732 168.66 297.967 168.66ZM297.967 156.727C285.643 156.727 277.055 159.531 277.055 162.046C277.055 164.562 285.643 167.366 297.967 167.366C310.291 167.366 318.879 164.562 318.879 162.046C318.879 159.531 310.291 156.727 297.967 156.727Z" fill="#FF5722"/>
<path d="M201.592 182.903C190.827 182.903 179.387 180.585 179.387 176.289C179.387 171.993 190.827 169.675 201.592 169.675C212.357 169.675 223.798 171.993 223.798 176.289C223.798 180.585 212.357 182.903 201.592 182.903ZM201.592 170.97C189.268 170.97 180.68 173.773 180.68 176.289C180.68 178.804 189.268 181.608 201.592 181.608C213.916 181.608 222.504 178.804 222.504 176.289C222.504 173.773 213.916 170.97 201.592 170.97Z" fill="#FF5722"/>
<path d="M217.959 318.961C232.967 318.961 245.133 306.784 245.133 291.764C245.133 276.744 232.967 264.567 217.959 264.567C202.951 264.567 190.785 276.744 190.785 291.764C190.785 306.784 202.951 318.961 217.959 318.961Z" fill="#1A1A1A"/>
<path d="M207.628 309.632L194.402 316.261L198.099 323.648L211.324 317.02L207.628 309.632Z" fill="#1A1A1A"/>
<path d="M199.841 322.899C200.625 321.709 198.689 319.047 195.517 316.954C192.345 314.86 189.138 314.129 188.354 315.319C187.569 316.51 189.505 319.171 192.677 321.265C195.849 323.358 199.056 324.09 199.841 322.899Z" fill="#1A1A1A"/>
<path d="M228.294 309.632L224.598 317.02L237.823 323.648L241.52 316.26L228.294 309.632Z" fill="#1A1A1A"/>
<path d="M243.244 321.264C246.416 319.171 248.351 316.509 247.567 315.319C246.783 314.128 243.576 314.86 240.404 316.953C237.232 319.046 235.296 321.708 236.08 322.899C236.865 324.089 240.072 323.357 243.244 321.264Z" fill="#1A1A1A"/>
<path d="M216.057 294.407C221.186 294.407 225.344 290.245 225.344 285.111C225.344 279.978 221.186 275.816 216.057 275.816C210.928 275.816 206.77 279.978 206.77 285.111C206.77 290.245 210.928 294.407 216.057 294.407Z" fill="white"/>
<path d="M218.317 283.33C219.521 282.125 219.514 280.164 218.301 278.951C217.089 277.737 215.13 277.731 213.926 278.935C212.722 280.14 212.729 282.101 213.941 283.314C215.154 284.528 217.113 284.535 218.317 283.33Z" fill="#FF5722"/>
<path d="M239.395 262.176C239.804 252.108 231.134 243.579 220.029 243.128C208.925 242.677 199.592 250.473 199.183 260.542C198.775 270.61 206.494 272.898 217.598 273.349C228.702 273.801 238.987 272.245 239.395 262.176Z" fill="#FF5722"/>
<path d="M255.062 306.005C256.849 304.47 254.336 298.605 249.448 292.907C244.56 287.209 239.149 283.834 237.361 285.37C235.574 286.905 238.087 292.77 242.975 298.468C247.863 304.167 253.274 307.541 255.062 306.005Z" fill="#1A1A1A"/>
<path d="M193.022 298.468C197.91 292.77 200.423 286.905 198.636 285.37C196.849 283.834 191.437 287.208 186.549 292.907C181.662 298.605 179.148 304.47 180.936 306.005C182.723 307.541 188.134 304.166 193.022 298.468Z" fill="#1A1A1A"/>
<path d="M225.422 302.482C225.716 304.099 225.357 305.766 224.422 307.118C223.488 308.469 222.055 309.394 220.44 309.688C218.824 309.983 217.158 309.623 215.808 308.687C214.457 307.752 213.534 306.319 213.239 304.702L213.237 304.69C212.628 301.322 215.23 300.13 218.595 299.521C221.959 298.911 224.813 299.114 225.422 302.482Z" fill="white"/>
<path d="M172.051 320.694C171.708 320.694 171.379 320.557 171.137 320.314C170.894 320.072 170.758 319.742 170.758 319.399V243.011C170.758 242.668 170.894 242.339 171.137 242.096C171.379 241.853 171.708 241.717 172.051 241.717C172.395 241.717 172.724 241.853 172.966 242.096C173.209 242.339 173.345 242.668 173.345 243.011V319.399C173.345 319.742 173.209 320.072 172.966 320.314C172.724 320.557 172.395 320.694 172.051 320.694Z" fill="#CCCCCC"/>
<path d="M152.645 389.313C152.302 389.313 151.973 389.177 151.73 388.934C151.488 388.691 151.352 388.362 151.352 388.019V332.346C151.352 332.003 151.488 331.674 151.73 331.431C151.973 331.188 152.302 331.052 152.645 331.052C152.988 331.052 153.317 331.188 153.56 331.431C153.803 331.674 153.939 332.003 153.939 332.346V388.019C153.939 388.362 153.802 388.691 153.56 388.934C153.317 389.177 152.988 389.313 152.645 389.313Z" fill="#CCCCCC"/>
<path d="M202.45 343.351C202.107 343.351 201.778 343.214 201.535 342.972C201.293 342.729 201.156 342.4 201.156 342.056V265.669C201.156 265.325 201.293 264.996 201.535 264.753C201.778 264.51 202.107 264.374 202.45 264.374C202.793 264.374 203.122 264.51 203.365 264.753C203.607 264.996 203.743 265.325 203.743 265.669V342.056C203.743 342.4 203.607 342.729 203.365 342.972C203.122 343.214 202.793 343.351 202.45 343.351Z" fill="#CCCCCC"/>
<path d="M183.692 398.376C183.349 398.376 183.02 398.24 182.777 397.997C182.535 397.754 182.398 397.425 182.398 397.081V366.009C182.398 365.665 182.535 365.336 182.777 365.093C183.02 364.85 183.349 364.714 183.692 364.714C184.035 364.714 184.364 364.85 184.607 365.093C184.849 365.336 184.986 365.665 184.986 366.009V397.081C184.986 397.425 184.849 397.754 184.607 397.997C184.364 398.24 184.035 398.376 183.692 398.376Z" fill="#CCCCCC"/>
<path d="M210.212 239.127C209.869 239.127 209.539 238.991 209.297 238.748C209.054 238.505 208.918 238.176 208.918 237.832V206.76C208.918 206.416 209.054 206.087 209.297 205.844C209.539 205.601 209.868 205.465 210.212 205.465C210.555 205.465 210.884 205.601 211.126 205.844C211.369 206.087 211.505 206.416 211.505 206.76V237.832C211.505 238.176 211.369 238.505 211.126 238.748C210.884 238.991 210.555 239.127 210.212 239.127Z" fill="#CCCCCC"/>
<path d="M145.532 252.722C145.189 252.722 144.86 252.585 144.617 252.343C144.375 252.1 144.238 251.77 144.238 251.427V220.354C144.238 220.011 144.375 219.682 144.617 219.439C144.86 219.196 145.189 219.06 145.532 219.06C145.875 219.06 146.204 219.196 146.447 219.439C146.689 219.682 146.826 220.011 146.826 220.354V251.427C146.826 251.77 146.689 252.1 146.447 252.343C146.204 252.585 145.875 252.722 145.532 252.722Z" fill="#CCCCCC"/>
<path d="M258.079 255.959C257.736 255.959 257.407 255.823 257.164 255.58C256.921 255.337 256.785 255.008 256.785 254.664V223.592C256.785 223.248 256.921 222.919 257.164 222.676C257.407 222.433 257.736 222.297 258.079 222.297C258.422 222.297 258.751 222.433 258.993 222.676C259.236 222.919 259.372 223.248 259.372 223.592V254.664C259.372 255.008 259.236 255.337 258.993 255.58C258.751 255.823 258.422 255.959 258.079 255.959Z" fill="#CCCCCC"/>
<path d="M255.489 353.062C255.146 353.062 254.817 352.925 254.574 352.682C254.332 352.44 254.195 352.11 254.195 351.767V314.22C254.195 313.877 254.332 313.548 254.574 313.305C254.817 313.062 255.146 312.926 255.489 312.926C255.832 312.926 256.161 313.062 256.404 313.305C256.646 313.548 256.783 313.877 256.783 314.22V351.767C256.783 352.11 256.646 352.44 256.404 352.682C256.161 352.925 255.832 353.062 255.489 353.062Z" fill="#CCCCCC"/>
<path d="M229.618 386.076C229.275 386.076 228.946 385.94 228.703 385.697C228.461 385.454 228.324 385.125 228.324 384.781V329.109C228.324 328.766 228.46 328.436 228.703 328.194C228.946 327.951 229.275 327.814 229.618 327.814C229.961 327.814 230.29 327.951 230.533 328.194C230.775 328.436 230.911 328.766 230.911 329.109V384.781C230.911 385.125 230.775 385.454 230.533 385.697C230.29 385.94 229.961 386.076 229.618 386.076Z" fill="#CCCCCC"/>
<path d="M234.794 290.915C234.451 290.915 234.122 290.779 233.879 290.536C233.636 290.293 233.5 289.964 233.5 289.621V213.233C233.5 212.89 233.636 212.56 233.879 212.318C234.121 212.075 234.451 211.938 234.794 211.938C235.137 211.938 235.466 212.075 235.708 212.318C235.951 212.56 236.087 212.89 236.087 213.233V289.621C236.087 289.964 235.951 290.293 235.708 290.536C235.466 290.779 235.137 290.915 234.794 290.915Z" fill="#CCCCCC"/>
<path d="M393.384 453.464C395.235 451.912 392.733 445.869 387.795 439.966C382.857 434.063 377.353 430.536 375.501 432.087C373.649 433.639 376.152 439.682 381.09 445.585C386.028 451.488 391.532 455.015 393.384 453.464Z" fill="#1A1A1A"/>
<path d="M381.241 446.751C386.106 432.144 378.218 416.355 363.623 411.486C349.028 406.617 333.252 414.511 328.387 429.118C323.522 443.726 331.41 459.515 346.005 464.384C360.6 469.253 376.376 461.358 381.241 446.751Z" fill="#1A1A1A"/>
<path d="M366.607 459.814H358.145V474.989H366.607V459.814Z" fill="#1A1A1A"/>
<path d="M349.681 459.814H341.219V474.989H349.681V459.814Z" fill="#1A1A1A"/>
<path d="M359.552 477.813C363.447 477.813 366.605 476.628 366.605 475.166C366.605 473.705 363.447 472.52 359.552 472.52C355.657 472.52 352.5 473.705 352.5 475.166C352.5 476.628 355.657 477.813 359.552 477.813Z" fill="#1A1A1A"/>
<path d="M342.626 477.46C346.521 477.46 349.679 476.275 349.679 474.813C349.679 473.351 346.521 472.166 342.626 472.166C338.732 472.166 335.574 473.351 335.574 474.813C335.574 476.275 338.732 477.46 342.626 477.46Z" fill="#1A1A1A"/>
<path d="M346.07 402.889C348.557 392.863 359.537 386.964 370.593 389.711C381.65 392.459 388.597 402.814 386.109 412.839C383.622 422.865 375.37 422.897 364.313 420.149C353.257 417.402 343.582 412.914 346.07 402.889Z" fill="#CCCCCC"/>
<path d="M336.023 430.972C337.058 428.788 332.263 424.343 325.312 421.044C318.362 417.745 311.889 416.841 310.854 419.025C309.819 421.208 314.615 425.653 321.565 428.952C328.515 432.251 334.988 433.156 336.023 430.972Z" fill="#1A1A1A"/>
<path d="M350.651 441.347C355.78 441.347 359.938 437.185 359.938 432.052C359.938 426.918 355.78 422.757 350.651 422.757C345.521 422.757 341.363 426.918 341.363 432.052C341.363 437.185 345.521 441.347 350.651 441.347Z" fill="white"/>
<path d="M346.834 431.818C348.544 431.818 349.93 430.431 349.93 428.719C349.93 427.008 348.544 425.621 346.834 425.621C345.124 425.621 343.738 427.008 343.738 428.719C343.738 430.431 345.124 431.818 346.834 431.818Z" fill="#FF5722"/>
<path d="M350.572 455.342C352.716 455.342 354.453 453.603 354.453 451.458C354.453 449.313 352.716 447.574 350.572 447.574C348.429 447.574 346.691 449.313 346.691 451.458C346.691 453.603 348.429 455.342 350.572 455.342Z" fill="white"/>
<path d="M434.353 478H281.705C281.534 478 281.369 477.932 281.248 477.81C281.127 477.689 281.059 477.524 281.059 477.352C281.059 477.181 281.127 477.016 281.248 476.895C281.369 476.773 281.534 476.705 281.705 476.705H434.353C434.524 476.705 434.689 476.773 434.81 476.895C434.931 477.016 434.999 477.181 434.999 477.352C434.999 477.524 434.931 477.689 434.81 477.81C434.689 477.932 434.524 478 434.353 478Z" fill="#FF5722"/>
</g>
<defs>
<clipPath id="clip0_817_76">
<rect width="435" height="478" fill="white"/>
</clipPath>
</defs>
</svg>
