<svg width="719" height="77" viewBox="0 0 719 77" fill="none" xmlns="http://www.w3.org/2000/svg">
<g clip-path="url(#clip0_25_2825)">
<path fill-rule="evenodd" clip-rule="evenodd" d="M420.934 70.51C415.709 74.9811 409.589 77.1971 402.624 77.1971C386.364 77.1971 373.931 63.6612 373.931 47.4438C373.931 31.2916 386.387 17.5441 402.624 17.5441C409.645 17.5441 415.752 19.8778 420.934 24.4691V18.5308H433.156V76.3222H420.934V70.51ZM225.294 47.4447C225.294 55.6904 222.365 62.7406 216.568 68.5452C210.791 74.3295 203.785 77.1971 195.663 77.1971C187.534 77.1971 180.525 74.3355 174.741 68.5452C168.945 62.744 166.068 55.6803 166.068 47.4447C166.068 39.2141 168.982 32.1818 174.738 26.3636C180.516 20.5218 187.485 17.545 195.662 17.545C203.831 17.545 210.792 20.5328 216.569 26.3636C222.329 32.1758 225.294 39.2108 225.294 47.4447ZM213.071 47.3702C213.071 42.5277 211.311 38.4315 207.931 35.0054C204.54 31.5683 200.47 29.7931 195.664 29.7931C190.849 29.7931 186.777 31.5624 183.379 35.0054C180.002 38.4281 178.293 42.5353 178.293 47.3702C178.293 52.2246 179.987 56.3555 183.379 59.7926C186.773 63.2322 190.859 64.9491 195.664 64.9491C200.461 64.9491 204.544 63.2263 207.931 59.7926C211.325 56.353 213.071 52.2331 213.071 47.3702ZM370.147 63.0461C367.377 67.3538 363.826 70.8882 359.379 73.4038C354.898 75.9381 350.054 77.1971 344.924 77.1971C336.804 77.1971 329.791 74.3346 324.018 68.5452C318.232 62.744 315.365 55.6718 315.365 47.4447C315.365 39.2218 318.267 32.1834 324.016 26.3636C329.785 20.5234 336.756 17.545 344.924 17.545C350.075 17.545 354.896 18.8946 359.38 21.45C363.793 23.9639 367.367 27.4103 370.146 31.6944L370.526 32.2824L360.266 39.0957L359.883 38.5084C356.316 33.0482 351.488 29.7931 344.924 29.7931C340.123 29.7931 336.057 31.5683 332.673 35.0054C329.302 38.4315 327.587 42.5353 327.587 47.3702C327.587 52.2254 329.288 56.353 332.673 59.7926C336.053 63.2263 340.133 64.9491 344.924 64.9491C351.487 64.9491 356.315 61.6939 359.883 56.2337L360.266 55.6473L370.524 62.458L370.147 63.0461ZM294.21 76.3222V18.5308H306.434V76.3222H294.21ZM245.095 22.9604C249.297 19.4116 254.182 17.545 259.776 17.545C273.426 17.545 282.999 29.6805 282.999 42.9195V76.3231H270.776V42.8289C270.776 35.7288 264.872 29.7931 257.834 29.7931C250.822 29.7931 245.095 35.7551 245.095 42.8289V76.3231H232.87V18.5308H245.095V22.9604ZM162.741 63.0461C159.972 67.3538 156.421 70.8882 151.973 73.4038C147.493 75.9381 142.65 77.1971 137.519 77.1971C129.398 77.1971 122.386 74.3346 116.613 68.5452C110.829 62.744 107.959 55.6718 107.959 47.4447C107.959 39.2218 110.864 32.1834 116.612 26.3636C122.379 20.5234 129.35 17.545 137.519 17.545C142.67 17.545 147.491 18.8946 151.975 21.45C156.388 23.9639 159.962 27.4103 162.74 31.6944L163.121 32.2824L152.86 39.0957L152.478 38.5084C148.91 33.0482 144.084 29.7931 137.519 29.7931C132.718 29.7931 128.651 31.5683 125.27 35.0054C121.897 38.4315 120.184 42.5353 120.184 47.3702C120.184 52.2254 121.885 56.353 125.27 59.7926C128.648 63.2263 132.728 64.9491 137.519 64.9491C144.083 64.9491 148.91 61.6939 152.478 56.2337L152.86 55.6473L163.118 62.458L162.741 63.0461ZM88.1562 22.5551C92.4711 18.8159 97.0061 17.5441 102.596 17.5441V29.9191C94.8968 29.9191 88.1562 34.6551 88.1562 42.9186V76.3222H75.9316V18.5308H88.1562V22.5551ZM51.3676 62.6374H26.6638L22.2167 50.3893H46.9556C44.3425 43.1124 41.5878 35.4107 34.6079 16.0507C23.0478 47.9845 21.9664 51.1999 12.8211 76.3231H0.0239258L27.2974 0.24707H41.9737L69.3953 76.3231H56.3252C54.262 70.6361 52.68 66.2724 51.3676 62.6374ZM294.21 0.257219V12.4934H306.434V0.257219H294.21ZM443.167 13.6332H444.825V10.582H446.601L448.765 13.6332H450.747L448.398 10.3028C449.596 9.95415 450.426 9.06822 450.426 7.64668C450.426 6.83184 450.172 6.20314 449.711 5.7606C449.113 5.15391 448.214 4.807 447.061 4.807H443.168L443.167 13.6332ZM452.158 3.76031C450.716 2.30323 448.719 1.40038 446.518 1.40038C444.315 1.40038 442.318 2.30323 440.878 3.76031L440.875 3.76369C439.433 5.21908 438.54 7.238 438.54 9.46423C438.54 11.6905 439.433 13.7085 440.875 15.1656L440.878 15.1673C442.318 16.6244 444.315 17.5289 446.518 17.5289C448.719 17.5289 450.716 16.6244 452.158 15.1673L452.159 15.1656C453.601 13.7085 454.496 11.6913 454.496 9.46423C454.496 7.23715 453.601 5.21823 452.159 3.76369L452.158 3.76031ZM446.518 0.249601C449.032 0.249601 451.311 1.28106 452.96 2.94883L452.964 2.95054C454.613 4.61915 455.634 6.92321 455.634 9.46506C455.634 12.0069 454.612 14.3118 452.964 15.9779L452.96 15.9813C451.311 17.6482 449.032 18.6805 446.518 18.6805C444.002 18.6805 441.724 17.6474 440.074 15.9813L440.072 15.9779C438.421 14.311 437.402 12.0069 437.402 9.46506C437.402 6.92321 438.422 4.61915 440.072 2.95054L440.074 2.94883C441.724 1.28022 444.002 0.249601 446.518 0.249601ZM444.825 9.11475V6.31907H446.992C448.074 6.31907 448.719 6.80815 448.719 7.69492C448.719 8.57915 448.074 9.11475 446.992 9.11475H444.825ZM403.525 29.7922C393.929 29.7922 386.155 37.6758 386.155 47.3702C386.155 57.1374 393.859 64.9491 403.525 64.9491C413.3 64.9491 420.744 57.134 420.697 47.3051C420.65 37.6022 413.19 29.7922 403.525 29.7922Z" fill="#333333"/>
<path fill-rule="evenodd" clip-rule="evenodd" d="M501.469 0.244141V37.3345H538.159V37.8151V38.2839V39.2332H501.469V76.3235H500.529H499.591V39.2332H462.9V38.2839V37.3345H499.591V0.244141H500.529H500.996H501.469Z" fill="#FF6600"/>
<path d="M707.339 61.9196C707.339 62.8859 707.756 63.6466 708.58 64.2008C709.41 64.7474 710.407 65.1815 711.582 65.4946C712.757 65.8094 713.939 66.1224 715.126 66.4355C716.314 66.7571 717.311 67.3299 718.123 68.1642C718.933 68.9977 719.337 70.1121 719.337 71.5057C719.337 73.1599 718.683 74.5214 717.376 75.5901C716.069 76.6579 714.36 77.1901 712.248 77.1901C710.347 77.1901 708.744 76.784 707.437 75.9691C706.131 75.156 705.227 74.0814 704.725 72.7478L706.429 71.746C706.798 72.8409 707.492 73.7006 708.507 74.3284C709.523 74.9546 710.771 75.2685 712.249 75.2685C713.729 75.2685 714.948 74.9428 715.911 74.2887C716.875 73.6346 717.357 72.7064 717.357 71.5057C717.357 70.5199 716.948 69.7304 716.13 69.15C715.312 68.5636 714.314 68.1101 713.141 67.7961C711.965 67.489 710.786 67.1683 709.596 66.8552C708.41 66.5421 707.405 65.982 706.587 65.1807C705.768 64.3811 705.36 63.3132 705.36 61.978C705.36 60.3779 705.988 59.03 707.241 57.9359C708.495 56.8418 710.113 56.2935 712.092 56.2935C713.676 56.2935 715.055 56.6548 716.23 57.3749C717.404 58.0958 718.269 59.0697 718.823 60.2967L717.16 61.2579C716.764 60.2705 716.104 59.5157 715.179 58.9953C714.255 58.4749 713.226 58.2143 712.092 58.2143C710.745 58.2143 709.617 58.5494 708.706 59.2161C707.794 59.8897 707.339 60.7832 707.339 61.9196ZM692.729 56.2944C695.076 56.2944 696.945 57.0212 698.332 58.4766C699.716 59.9303 700.409 61.8722 700.409 64.3015V76.7501H698.39V64.3015C698.39 62.4324 697.882 60.9524 696.865 59.8584C695.849 58.7643 694.417 58.216 692.57 58.216C690.536 58.216 688.873 58.8963 687.58 60.2578C686.285 61.6192 685.64 63.5941 685.64 66.1825V76.7501H683.66V56.736H685.64V60.5387C687.064 57.7091 689.427 56.2944 692.729 56.2944ZM662.573 72.7859C664.196 74.4401 666.183 75.2677 668.532 75.2677C670.882 75.2677 672.862 74.4401 674.472 72.7859C676.081 71.1317 676.887 69.1178 676.887 66.7418C676.887 64.3667 676.081 62.3511 674.472 60.6969C672.861 59.0427 670.882 58.2151 668.532 58.2151C666.182 58.2151 664.196 59.0418 662.573 60.6969C660.949 62.3511 660.137 64.3675 660.137 66.7418C660.137 69.1178 660.949 71.1317 662.573 72.7859ZM668.533 77.1893C665.629 77.1893 663.168 76.1832 661.149 74.1677C659.129 72.1538 658.119 69.678 658.119 66.7418C658.119 63.8065 659.129 61.3307 661.149 59.3168C663.168 57.3013 665.63 56.2935 668.533 56.2935C671.41 56.2935 673.86 57.3013 675.879 59.3168C677.898 61.3307 678.909 63.8065 678.909 66.7418C678.909 69.678 677.898 72.1538 675.879 74.1677C673.86 76.1832 671.41 77.1893 668.533 77.1893ZM651.387 76.7493V56.7352H653.366V76.7493H651.387ZM653.486 51.4307C653.169 51.7378 652.8 51.891 652.378 51.891C651.955 51.891 651.585 51.7378 651.269 51.4307C650.951 51.1235 650.793 50.7436 650.793 50.2901C650.793 49.8628 650.952 49.4955 651.269 49.1884C651.586 48.8829 651.955 48.7281 652.378 48.7281C652.8 48.7281 653.169 48.8829 653.486 49.1884C653.803 49.4955 653.96 49.8628 653.96 50.2901C653.96 50.7436 653.803 51.1235 653.486 51.4307ZM646.635 58.6966H640.735V71.7062C640.735 72.8544 640.946 73.6811 641.367 74.188C641.79 74.6957 642.438 74.9808 643.308 75.0485C644.18 75.1154 645.288 75.0807 646.635 74.9478V76.7493C643.969 77.1487 641.981 76.9625 640.676 76.1891C639.369 75.4158 638.716 73.9206 638.716 71.7062V58.6966H634.36V56.7352H638.716V51.7319L640.736 51.1294V56.7352H646.636L646.635 58.6966ZM628.42 56.7352H630.4V76.7493H628.42V72.9467C626.994 75.7754 624.632 77.1893 621.332 77.1893C618.982 77.1893 617.115 76.4624 615.729 75.0087C614.344 73.5534 613.651 71.6115 613.651 69.1838V56.7352H615.671V69.1838C615.671 71.0513 616.178 72.5329 617.194 73.627C618.211 74.721 619.643 75.2677 621.491 75.2677C623.525 75.2677 625.187 74.5874 626.48 73.2276C627.773 71.8661 628.42 69.8904 628.42 67.302V56.7352ZM606.087 76.7493V47.5274H608.066V76.7493H606.087ZM585 72.7859C586.625 74.4401 588.611 75.2677 590.96 75.2677C593.31 75.2677 595.29 74.4401 596.899 72.7859C598.51 71.1317 599.316 69.1178 599.316 66.7418C599.316 64.3667 598.51 62.3511 596.899 60.6969C595.29 59.0427 593.31 58.2151 590.96 58.2151C588.611 58.2151 586.624 59.0418 585 60.6969C583.377 62.3511 582.565 64.3675 582.565 66.7418C582.565 69.1178 583.377 71.1317 585 72.7859ZM590.96 77.1893C588.056 77.1893 585.594 76.1832 583.575 74.1677C581.555 72.1538 580.544 69.678 580.544 66.7418C580.544 63.8065 581.555 61.3307 583.575 59.3168C585.593 57.3013 588.056 56.2935 590.96 56.2935C593.838 56.2935 596.285 57.3013 598.305 59.3168C600.325 61.3307 601.334 63.8065 601.334 66.7418C601.334 69.678 600.325 72.1538 598.305 74.1677C596.285 76.1832 593.838 77.1893 590.96 77.1893ZM567.479 77.1893C564.917 77.1893 562.746 76.597 560.965 75.4081C559.183 74.221 557.976 72.6124 557.342 70.585L559.164 69.5028C559.664 71.2391 560.622 72.6124 562.034 73.627C563.446 74.6407 565.261 75.1467 567.479 75.1467C569.722 75.1467 571.444 74.628 572.646 73.5864C573.847 72.5456 574.447 71.1994 574.447 69.5426C574.447 67.995 573.867 66.8078 572.705 65.9811C571.543 65.1536 569.735 64.3328 567.28 63.5332C566.389 63.2066 565.736 62.9654 565.326 62.8123C564.916 62.6659 564.329 62.4451 563.564 62.1641C562.791 61.8781 562.225 61.6175 561.854 61.3772C561.485 61.1386 561.044 60.8171 560.527 60.4177C560.012 60.0166 559.637 59.6104 559.399 59.1967C559.163 58.7829 558.95 58.2887 558.765 57.7151C558.58 57.1405 558.488 56.5084 558.488 55.8137C558.488 53.5444 559.287 51.7234 560.884 50.3501C562.481 48.9743 564.48 48.2881 566.882 48.2881C569.047 48.2881 570.896 48.8364 572.427 49.9288C573.958 51.0228 575.079 52.4384 575.792 54.173L574.01 55.1732C572.691 51.9443 570.314 50.3298 566.882 50.3298C564.981 50.3298 563.464 50.8358 562.329 51.8504C561.193 52.8641 560.628 54.1587 560.628 55.7334C560.628 57.2547 561.154 58.3894 562.21 59.129C563.267 59.8778 564.995 60.6504 567.398 61.4517C568.91 62.0262 570.103 62.4721 570.968 62.7996C571.839 63.133 572.764 63.6068 573.753 64.233C574.744 64.8617 575.463 65.6088 575.912 66.482C576.361 67.3494 576.585 68.3571 576.585 69.5045C576.585 71.8272 575.753 73.6887 574.091 75.09C572.429 76.4887 570.225 77.1893 567.479 77.1893ZM686.037 28.714V-0.508789H688.017V28.714H686.037ZM663.603 24.7498C665.227 26.404 667.214 27.2315 669.563 27.2315C671.913 27.2315 673.893 26.404 675.503 24.7498C677.114 23.0955 677.919 21.08 677.919 18.7065C677.919 16.3305 677.113 14.315 675.503 12.6607C673.894 11.0065 671.914 10.179 669.563 10.179C667.214 10.179 665.227 11.0065 663.603 12.6607C661.98 14.315 661.168 16.3305 661.168 18.7065C661.168 21.08 661.98 23.0955 663.603 24.7498ZM677.918 8.69905H679.937V28.7131H677.918V24.1896C677.073 25.7372 675.913 26.9523 674.433 27.8323C672.955 28.714 671.279 29.154 669.404 29.154C666.58 29.154 664.164 28.1462 662.158 26.1315C660.153 24.116 659.148 21.6418 659.148 18.7065C659.148 15.7704 660.153 13.2954 662.158 11.2798C664.164 9.26514 666.58 8.25735 669.404 8.25735C671.279 8.25735 672.955 8.69905 674.433 9.57905C675.913 10.4599 677.073 11.6733 677.918 13.2209V8.69905ZM652.417 28.714V8.6999H654.396V28.714H652.417ZM654.516 3.39452C654.199 3.70168 653.83 3.85484 653.408 3.85484C652.985 3.85484 652.615 3.70168 652.298 3.39452C651.982 3.08737 651.823 2.70827 651.823 2.25389C651.823 1.82574 651.982 1.45938 652.298 1.15222C652.616 0.844222 652.985 0.691909 653.408 0.691909C653.83 0.691909 654.199 0.844222 654.516 1.15222C654.833 1.45938 654.992 1.82574 654.992 2.25389C654.991 2.70743 654.832 3.08737 654.516 3.39452ZM639.27 29.154C636.287 29.154 633.806 28.1538 631.826 26.1518C629.846 24.1507 628.856 21.6689 628.856 18.7065C628.856 15.7433 629.846 13.2615 631.826 11.2595C633.806 9.2592 636.287 8.25735 639.27 8.25735C641.197 8.25735 642.938 8.71768 644.497 9.63914C646.055 10.5589 647.19 11.8078 647.902 13.3817L646.279 14.3438C645.699 13.0627 644.782 12.0473 643.526 11.3001C642.273 10.553 640.853 10.1798 639.27 10.1798C636.894 10.1798 634.901 11.0006 633.292 12.6421C631.681 14.2845 630.875 16.3043 630.875 18.7074C630.875 21.1087 631.681 23.1302 633.292 24.7709C634.901 26.4116 636.895 27.2324 639.27 27.2324C640.853 27.2324 642.273 26.8592 643.526 26.1121C644.781 25.3649 645.737 24.3512 646.398 23.0701L648.06 24.0703C647.268 25.6179 646.088 26.8533 644.517 27.7731C642.946 28.6937 641.197 29.154 639.27 29.154ZM615.788 10.179C613.546 10.179 611.671 10.8864 610.165 12.3011C608.661 13.7151 607.803 15.5436 607.591 17.7851H623.51C623.299 15.4099 622.461 13.5484 620.995 12.2013C619.531 10.8534 617.794 10.179 615.788 10.179ZM615.788 8.25735C618.692 8.25735 621.049 9.29982 622.857 11.3797C624.665 13.462 625.569 15.9294 625.569 18.7861C625.569 18.8927 625.564 19.0518 625.549 19.2667C625.536 19.4791 625.53 19.6398 625.53 19.7464H607.591C607.829 21.9879 608.72 23.7961 610.265 25.1694C611.81 26.5453 613.716 27.2315 615.986 27.2315C617.572 27.2315 618.956 26.8981 620.146 26.2322C621.333 25.5637 622.231 24.6838 622.837 23.5897L624.58 24.6296C623.762 26.0173 622.601 27.119 621.095 27.9321C619.59 28.7453 617.873 29.1531 615.947 29.1531C612.911 29.1531 610.417 28.1733 608.462 26.2111C606.509 24.2497 605.533 21.7476 605.533 18.7057C605.533 15.7162 606.49 13.2277 608.404 11.2409C610.317 9.25158 612.779 8.25735 615.788 8.25735ZM585.752 24.7498C587.377 26.404 589.363 27.2315 591.713 27.2315C594.062 27.2315 596.049 26.404 597.672 24.7498C599.296 23.0955 600.106 21.08 600.106 18.7065C600.106 16.3305 599.295 14.315 597.672 12.6607C596.049 11.0065 594.062 10.179 591.713 10.179C589.363 10.179 587.377 11.0065 585.752 12.6607C584.129 14.315 583.317 16.3305 583.317 18.7065C583.318 21.08 584.13 23.0955 585.752 24.7498ZM591.832 8.25735C594.683 8.25735 597.103 9.26514 599.097 11.2798C601.091 13.2954 602.087 15.7704 602.087 18.7065C602.087 21.6418 601.091 24.116 599.097 26.1315C597.103 28.1462 594.683 29.154 591.832 29.154C589.957 29.154 588.274 28.7004 586.783 27.7925C585.291 26.8863 584.135 25.6441 583.317 24.0703V36.7203H581.337V8.6999H583.317V13.3427C584.135 11.7681 585.291 10.5276 586.783 9.61967C588.274 8.71175 589.957 8.25735 591.832 8.25735ZM567.479 29.154C564.917 29.154 562.746 28.5591 560.965 27.3728C559.183 26.1848 557.976 24.578 557.342 22.5498L559.164 21.4684C559.664 23.203 560.622 24.5788 562.034 25.5925C563.446 26.607 565.261 27.1131 567.479 27.1131C569.722 27.1131 571.444 26.5927 572.646 25.5527C573.847 24.5111 574.447 23.1641 574.447 21.5098C574.447 19.9622 573.867 18.7751 572.705 17.9475C571.543 17.12 569.735 16.2992 567.28 15.4987C566.389 15.173 565.736 14.9318 565.326 14.7778C564.916 14.6331 564.329 14.4123 563.564 14.1314C562.791 13.8445 562.225 13.5856 561.854 13.3444C561.485 13.1033 561.044 12.7843 560.527 12.3841C560.012 11.983 559.637 11.5768 559.399 11.1622C559.163 10.751 558.95 10.256 558.765 9.68229C558.58 9.1086 558.488 8.47567 558.488 7.78098C558.488 5.51159 559.287 3.69067 560.884 2.31736C562.481 0.942362 564.48 0.255275 566.882 0.255275C569.047 0.255275 570.896 0.801066 572.427 1.89599C573.958 2.99007 575.079 4.40398 575.792 6.14029L574.01 7.14045C572.691 3.91237 570.314 2.29621 566.882 2.29621C564.981 2.29621 563.464 2.80391 562.329 3.8176C561.193 4.83214 560.628 6.12675 560.628 7.70059C560.628 9.22113 561.154 10.3575 562.21 11.0962C563.267 11.8425 564.995 12.6176 567.398 13.4189C568.91 13.9909 570.103 14.4385 570.968 14.766C571.839 15.0994 572.764 15.5732 573.753 16.2002C574.744 16.8281 575.463 17.5752 575.912 18.4493C576.361 19.3166 576.585 20.3244 576.585 21.4709C576.585 23.7936 575.753 25.6551 574.091 27.0564C572.429 28.4534 570.225 29.154 567.479 29.154Z" fill="#FF6600"/>
</g>
<defs>
<clipPath id="clip0_25_2825">
<rect width="719" height="77" fill="white"/>
</clipPath>
</defs>
</svg>
