<svg width="298" height="298" viewBox="0 0 298 298" fill="none" xmlns="http://www.w3.org/2000/svg">
<g clip-path="url(#clip0_754_90)">
<path d="M74.5 144.116V223.5H153.884L137.328 206.945H91.0556V160.672L74.5 144.116Z" fill="#FF5722" fill-opacity="0.09"/>
<path d="M288.645 267.289L264.888 243.201V264.889H33.1104V230.536H49.6659V217.292H33.1104V162.244H49.6659V149H33.1104V96.0221H49.6659V82.7776H33.1104V36.5049L165.058 167.708V144.364L30.7098 10.6782C29.552 9.51078 28.0728 8.71462 26.4607 8.39121C24.8486 8.0678 23.1767 8.23179 21.6582 8.86229C20.1397 9.49278 18.8434 10.5612 17.9345 11.9313C17.0256 13.3015 16.5453 14.9112 16.5548 16.5554V273.167C16.5548 275.362 17.4269 277.467 18.9793 279.02C20.5317 280.572 22.6372 281.444 24.8326 281.444H282.768C284.412 281.454 286.022 280.974 287.392 280.065C288.762 279.156 289.831 277.859 290.461 276.341C291.092 274.822 291.256 273.151 290.932 271.538C290.609 269.926 289.813 268.447 288.645 267.289Z" fill="#FF5722" fill-opacity="0.09"/>
<path d="M198.665 248.333H231.776C236.167 248.333 240.378 246.589 243.483 243.484C246.587 240.379 248.332 236.168 248.332 231.778V72.0165L229.293 37.0015C227.82 34.4505 225.694 32.3385 223.133 30.8834C220.572 29.4283 217.669 28.6828 214.724 28.7238C211.712 28.7477 208.764 29.5928 206.196 31.1681C203.629 32.7435 201.54 34.9893 200.155 37.6638L182.109 72.1821V231.778C182.109 236.168 183.854 240.379 186.958 243.484C190.063 246.589 194.274 248.333 198.665 248.333ZM198.665 76.1554L214.724 44.9482L231.776 76.2382V198.667H198.665V76.1554ZM198.665 212.159H231.776V232.357H198.665V212.159Z" fill="#FF5722" fill-opacity="0.09"/>
</g>
<defs>
<clipPath id="clip0_754_90">
<rect width="298" height="298" fill="white"/>
</clipPath>
</defs>
</svg>
