<svg width="341" height="341" viewBox="0 0 341 341" fill="none" xmlns="http://www.w3.org/2000/svg">
<path d="M99.457 241.726L162.158 241.513L299.013 105.966C304.384 100.595 307.339 93.4624 307.339 85.8751C307.339 78.2879 304.384 71.1553 299.013 65.7845L276.479 43.2501C265.737 32.5086 246.996 32.5654 236.34 43.2075L99.457 178.783V241.726ZM256.388 63.3407L278.965 85.8325L256.274 108.31L233.74 85.7899L256.388 63.3407ZM127.874 190.633L213.55 105.767L236.084 128.301L150.422 213.139L127.874 213.21V190.633Z" fill="#FF5722" fill-opacity="0.09"/>
<path d="M71.0417 298.375H269.958C285.63 298.375 298.375 285.63 298.375 269.958V146.8L269.958 175.217V269.958H115.912C115.542 269.958 115.159 270.1 114.789 270.1C114.32 270.1 113.851 269.973 113.368 269.958H71.0417V71.0417H168.326L196.743 42.625H71.0417C55.3699 42.625 42.625 55.3699 42.625 71.0417V269.958C42.625 285.63 55.3699 298.375 71.0417 298.375Z" fill="#FF5722" fill-opacity="0.09"/>
</svg>
