<svg width="287" height="287" viewBox="0 0 287 287" fill="none" xmlns="http://www.w3.org/2000/svg">
<path d="M242.157 150.316V136.594L259.377 121.527C262.551 118.729 264.634 114.899 265.258 110.714C265.881 106.529 265.005 102.258 262.785 98.6563L241.619 62.7813C240.046 60.0571 237.784 57.7945 235.061 56.2203C232.338 54.6461 229.248 53.8157 226.103 53.8125C224.153 53.7976 222.215 54.1005 220.363 54.7094L198.569 62.0638C194.806 59.5633 190.881 57.3162 186.82 55.3372L182.246 32.736C181.425 28.6068 179.179 24.8976 175.9 22.2578C172.62 19.6179 168.517 18.2156 164.308 18.2963H122.334C118.125 18.2156 114.022 19.6179 110.743 22.2578C107.463 24.8976 105.217 28.6068 104.397 32.736L99.8227 55.3372C95.7324 57.3157 91.7775 59.5628 87.984 62.0638L66.6383 54.3506C64.7665 53.863 62.8282 53.6812 60.8983 53.8125C57.7528 53.8157 54.6634 54.6461 51.94 56.2203C49.2167 57.7945 46.9552 60.0571 45.3824 62.7813L24.2162 98.6563C22.1227 102.253 21.3448 106.465 22.0157 110.572C22.6865 114.679 24.7643 118.425 27.8933 121.168L44.8443 136.684V150.406L27.8933 165.473C24.676 168.236 22.5413 172.049 21.8681 176.235C21.195 180.422 22.0268 184.712 24.2162 188.344L45.3824 224.219C46.9552 226.943 49.2167 229.206 51.94 230.78C54.6634 232.354 57.7528 233.184 60.8983 233.188C62.8477 233.202 64.7865 232.9 66.6383 232.291L88.4324 224.936C92.1951 227.437 96.1202 229.684 100.181 231.663L104.756 254.264C105.576 258.393 107.822 262.102 111.101 264.742C114.381 267.382 118.484 268.784 122.693 268.704H165.026C169.235 268.784 173.338 267.382 176.617 264.742C179.897 262.102 182.143 258.393 182.963 254.264L187.537 231.663C191.627 229.684 195.582 227.437 199.376 224.936L221.08 232.291C222.932 232.9 224.871 233.202 226.82 233.188C229.966 233.184 233.055 232.354 235.779 230.78C238.502 229.206 240.763 226.943 242.336 224.219L262.785 188.344C264.878 184.747 265.656 180.535 264.985 176.428C264.315 172.321 262.237 168.576 259.108 165.832L242.157 150.316ZM226.103 215.25L195.34 204.846C188.139 210.946 179.908 215.714 171.035 218.927L164.667 251.125H122.334L115.966 219.286C107.163 215.982 98.9771 211.222 91.7508 205.205L60.8983 215.25L39.7321 179.375L64.1271 157.85C62.4687 148.566 62.4687 139.062 64.1271 129.778L39.7321 107.625L60.8983 71.75L91.6612 82.1538C98.8625 76.054 107.093 71.2859 115.966 68.0728L122.334 35.875H164.667L171.035 67.7141C179.838 71.0184 188.024 75.7783 195.25 81.795L226.103 71.75L247.269 107.625L222.874 129.15C224.532 138.434 224.532 147.938 222.874 157.222L247.269 179.375L226.103 215.25Z" fill="#FF5722" fill-opacity="0.09"/>
<path d="M143.5 197.313C132.857 197.313 122.453 194.156 113.603 188.243C104.754 182.33 97.8567 173.926 93.7838 164.093C89.7108 154.26 88.6451 143.44 90.7215 133.002C92.7979 122.563 97.923 112.975 105.449 105.449C112.975 97.923 122.563 92.7979 133.002 90.7215C143.44 88.6451 154.26 89.7108 164.093 93.7838C173.926 97.8567 182.33 104.754 188.243 113.603C194.156 122.453 197.313 132.857 197.313 143.5C197.384 150.587 196.042 157.617 193.363 164.178C190.684 170.739 186.723 176.7 181.712 181.712C176.7 186.723 170.739 190.684 164.178 193.363C157.617 196.042 150.587 197.384 143.5 197.313ZM143.5 107.625C138.759 107.515 134.044 108.367 129.642 110.131C125.239 111.895 121.24 114.533 117.887 117.887C114.533 121.24 111.895 125.239 110.131 129.642C108.367 134.044 107.515 138.759 107.625 143.5C107.515 148.241 108.367 152.956 110.131 157.358C111.895 161.761 114.533 165.76 117.887 169.113C121.24 172.467 125.239 175.105 129.642 176.869C134.044 178.633 138.759 179.485 143.5 179.375C148.241 179.485 152.956 178.633 157.358 176.869C161.761 175.105 165.76 172.467 169.113 169.113C172.467 165.76 175.105 161.761 176.869 157.358C178.633 152.956 179.485 148.241 179.375 143.5C179.485 138.759 178.633 134.044 176.869 129.642C175.105 125.239 172.467 121.24 169.113 117.887C165.76 114.533 161.761 111.895 157.358 110.131C152.956 108.367 148.241 107.515 143.5 107.625Z" fill="#FF5722" fill-opacity="0.09"/>
</svg>
